<svg width="23" height="17" viewBox="0 0 23 17" fill="none" xmlns="http://www.w3.org/2000/svg">
  <path
    d="M7.22992 13.55L2.60325 8.92331C2.47991 8.79969 2.33339 8.70162 2.1721 8.6347C2.0108 8.56778 1.83788 8.53333 1.66325 8.53333C1.48862 8.53333 1.31571 8.56778 1.15441 8.6347C0.99311 8.70162 0.846595 8.79969 0.723252 8.92331C0.203252 9.44331 0.203252 10.2833 0.723252 10.8033L6.29659 16.3766C6.81659 16.8966 7.65659 16.8966 8.17659 16.3766L22.2833 2.26998C22.8033 1.74998 22.8033 0.909981 22.2833 0.389981C22.1599 0.26636 22.0134 0.168283 21.8521 0.101364C21.6908 0.0344455 21.5179 0 21.3433 0C21.1686 0 20.9957 0.0344455 20.8344 0.101364C20.6731 0.168283 20.5266 0.26636 20.4033 0.389981L7.22992 13.55Z"
    fill="white" />
</svg>