<svg width="24" height="24" viewBox="0 0 24 24" fill="none" xmlns="http://www.w3.org/2000/svg">
  <path
    d="M18.3 5.70996C18.2075 5.61724 18.0976 5.54368 17.9766 5.49349C17.8556 5.4433 17.7259 5.41747 17.595 5.41747C17.464 5.41747 17.3343 5.4433 17.2133 5.49349C17.0924 5.54368 16.9825 5.61724 16.89 5.70996L12 10.59L7.10997 5.69996C7.01746 5.60724 6.90758 5.53368 6.7866 5.48349C6.66563 5.4333 6.53594 5.40747 6.40497 5.40747C6.274 5.40747 6.14431 5.4333 6.02334 5.48349C5.90236 5.53368 5.79248 5.60724 5.69997 5.69996C5.30997 6.08996 5.30997 6.71996 5.69997 7.10996L10.59 12L5.69997 16.89C5.30997 17.28 5.30997 17.91 5.69997 18.3C6.08997 18.69 6.71997 18.69 7.10997 18.3L12 13.41L16.89 18.3C17.28 18.69 17.91 18.69 18.3 18.3C18.69 17.91 18.69 17.28 18.3 16.89L13.41 12L18.3 7.10996C18.68 6.72996 18.68 6.08996 18.3 5.70996Z"
    fill="#16453A" />
</svg>